<svg xmlns="http://www.w3.org/2000/svg" xmlns:xlink="http://www.w3.org/1999/xlink" width="175" height="123" version="1.1" viewBox="0 0 175 123"><defs><polygon id="path-1" points="0 0 46 0 46 30 0 30"/></defs><g id="google-my-business-feature" fill="none" fill-rule="evenodd" stroke="none" stroke-width="1"><g id="Laptop" transform="translate(1.000000, 4.000000)"><path id="Fill-53" fill="#98c6d9" d="M156.1572,109.478 L15.2992,109.478 L15.2992,7.91 C15.2992,3.905 18.5462,0.659 22.5512,0.659 L156.1572,0.659 L156.1572,109.478 Z"/><polyline id="Fill-54" fill="#dcdcde" points="27.704 97.65 27.704 28.907 144.897 28.907 144.897 97.65 34.04 97.65"/><polyline id="Fill-55" fill="#3895ba" points="27.704 28.561 27.704 12.463 144.897 12.463 144.897 28.561 34.04 28.561"/><polyline id="Fill-56" fill="#FFF" points="135.965 45.552 135.965 97.65 100.791 97.65 100.791 39.773 135.965 39.773"/><polyline id="Fill-63" fill="#FFF" points="86.453 97.877 37 97.877 37 40 94.461 40 94.461 97.877"/><path id="Fill-64" fill="#98c6d9" d="M129.0908,76.5971 C123.2208,76.5971 122.4418,79.1331 121.1838,81.9551 C120.1828,84.2021 116.6688,85.7871 112.8508,86.5491 C108.9568,87.3261 107.6598,90.3531 107.6598,92.6711 L129.2768,92.6711 L129.0908,76.5971 Z"/><path id="Fill-66" fill="#187aa2" d="M164.8261,118.1264 L5.2461,118.1264 C2.4741,118.1264 0.2281,115.8794 0.2281,113.1074 L0.2281,108.8284 L171.0531,108.8284 L171.0531,111.8994 C171.0531,115.3384 168.2651,118.1264 164.8261,118.1264"/><path id="Fill-67" fill="#004e6e" d="M96.9213,113.477 L74.3593,113.477 C72.2193,113.477 70.4853,111.743 70.4853,109.603 L70.4853,108.829 L100.7953,108.829 L100.7953,109.603 C100.7953,111.743 99.0613,113.477 96.9213,113.477"/><path id="Fill-75" fill="#004e6e" d="M148.871,28.811 C138.478,29.677 128.081,29.675 117.685,29.78 L86.495,30.088 L55.304,30.126 C44.907,30.136 34.511,30.255 24.109,29.503 L24.106,29.003 C34.499,28.136 44.896,28.139 55.292,28.033 L86.482,27.726 L117.673,27.687 C128.07,27.677 138.467,27.561 148.868,28.311 L148.871,28.811 Z"/><g id="Group" transform="translate(107.000000, 49.000000)"><polygon id="Fill-7" fill="#98c6d9" points=".826 14.185 6.015 14.185 6.015 9.994 .826 9.994"/><polygon id="Fill-8" fill="#98c6d9" points="8.644 12.469 13.833 12.469 13.833 5.994 8.644 5.994"/><polygon id="Fill-9" fill="#98c6d9" points="16.463 9.994 21.652 9.994 21.652 .226 16.463 .226"/><polygon id="Fill-10" fill="#006088" points=".826 18.335 6.015 18.335 6.015 15.185 .826 15.185"/><polygon id="Fill-11" fill="#006088" points="8.644 18.335 13.833 18.335 13.833 13.469 8.644 13.469"/><polygon id="Fill-12" fill="#006088" points="16.463 18.335 21.652 18.335 21.652 10.993 16.463 10.993"/></g></g><polygon id="Fill-1" fill="#98c6d9" points="44 61.925 90 61.925 90 49.839 44 49.839"/><g id="Group-4" opacity=".5" transform="translate(44.000000, 67.000000)"><mask id="mask-2" fill="#fff"><use xlink:href="#path-1"/></mask><path id="Fill-2" fill="#6ab3d0" d="M37.7805459,30 L0,30 L0,0 L46,0 L46,21.0092005 C46,25.9731831 42.3195307,30 37.7805459,30" mask="url(#mask-2)"/></g></g></svg>